<svg xmlns="http://www.w3.org/2000/svg" fill="currentColor" viewBox="0 0 24 24"><path d="M13.93 13.93c-1.57 1.62-1.69 3.64-1.82 8.07 4.13 0 6.98-.01 8.45-1.44C21.99 19.09 22 16.1 22 12.11c-4.43.14-6.45.25-8.07 1.82ZM2 12.11c0 3.99.01 6.98 1.44 8.45C4.91 21.99 7.76 22 11.89 22c-.14-4.43-.25-6.45-1.82-8.07-1.62-1.57-3.64-1.69-8.07-1.82ZM11.89 2c-4.12 0-6.98.01-8.45 1.44C2.01 4.91 2 7.9 2 11.89c4.43-.14 6.45-.25 8.07-1.82 1.57-1.62 1.69-3.64 1.82-8.07Zm2.04 8.07C12.36 8.45 12.24 6.43 12.11 2c4.13 0 6.98.01 8.45 1.44C21.99 4.91 22 7.9 22 11.89c-4.43-.14-6.45-.25-8.07-1.82Z"/></svg>