<svg xmlns="http://www.w3.org/2000/svg" fill="currentColor" viewBox="0 0 24 24"><path fill-rule="evenodd" d="M2 12a10 10 0 1 1 20 0 10 10 0 0 1-20 0Zm12.4-6.78a19.8 19.8 0 0 0-.48-.99A8 8 0 0 1 19.94 11h-3.98c-.16-2.27-.87-4.3-1.55-5.78ZM13.97 11A15.07 15.07 0 0 0 12 4.89 15.09 15.09 0 0 0 10.04 11h3.92Zm-3.92 2h3.92A15.07 15.07 0 0 1 12 19.11a17.58 17.58 0 0 1-.6-1.16c-.6-1.33-1.2-3.05-1.36-4.95Zm-2-2a16.95 16.95 0 0 1 2.04-6.77A8 8 0 0 0 4.06 11h3.98Zm-3.98 2h3.98a16.95 16.95 0 0 0 2.04 6.77A8 8 0 0 1 4.06 13Zm15.88 0a8 8 0 0 1-6.02 6.77A16.95 16.95 0 0 0 15.96 13h3.98Z"/></svg>