<svg xmlns="http://www.w3.org/2000/svg" fill="currentColor" viewBox="0 0 24 24"><path d="M18.54 6.66a1.2 1.2 0 1 1-2.4 0 1.2 1.2 0 0 1 2.4 0ZM12 15.33a3.33 3.33 0 1 1 0-6.66 3.33 3.33 0 0 1 0 6.66Zm0-8.47a5.13 5.13 0 1 0 0 10.27 5.13 5.13 0 0 0 0-10.27Zm0-3.06c2.67 0 2.99.01 4.04.06.98.04 1.5.2 1.86.34a3.27 3.27 0 0 1 1.9 1.9c.13.35.3.88.34 1.86.05 1.05.06 1.37.06 4.04s-.01 2.99-.06 4.04c-.04.98-.2 1.5-.34 1.86-.19.46-.4.8-.75 1.15a3.1 3.1 0 0 1-1.15.75c-.35.13-.88.3-1.86.34-1.05.05-1.37.06-4.04.06s-2.99-.01-4.04-.06c-.98-.04-1.5-.2-1.86-.34a3.1 3.1 0 0 1-1.15-.75 3.1 3.1 0 0 1-.75-1.15 5.6 5.6 0 0 1-.34-1.86C3.81 15 3.8 14.67 3.8 12s.01-2.99.06-4.04c.04-.98.2-1.5.34-1.86.19-.46.4-.8.75-1.15A3.1 3.1 0 0 1 6.1 4.2c.36-.13.88-.3 1.86-.34C9 3.81 9.33 3.8 12 3.8ZM12 2c-2.72 0-3.06.01-4.12.06-1.07.05-1.8.22-2.43.47a4.9 4.9 0 0 0-1.77 1.15 4.9 4.9 0 0 0-1.16 1.77 7.35 7.35 0 0 0-.46 2.43C2.01 8.94 2 9.28 2 12s.01 3.06.06 4.12c.05 1.07.22 1.8.47 2.43a4.9 4.9 0 0 0 1.15 1.77 4.9 4.9 0 0 0 1.77 1.15 7.3 7.3 0 0 0 2.43.47c1.06.05 1.4.06 4.12.06s3.06-.01 4.12-.06a7.35 7.35 0 0 0 2.43-.47 4.9 4.9 0 0 0 1.77-1.15 4.9 4.9 0 0 0 1.15-1.77 7.3 7.3 0 0 0 .47-2.43c.05-1.06.06-1.4.06-4.12s-.01-3.06-.06-4.12a7.35 7.35 0 0 0-.47-2.43 4.9 4.9 0 0 0-1.15-1.77 4.9 4.9 0 0 0-1.77-1.16 7.35 7.35 0 0 0-2.43-.46C15.06 2.01 14.72 2 12 2Z"/></svg>