<svg xmlns="http://www.w3.org/2000/svg" fill="currentColor" viewBox="0 0 202 64"><path d="M93 31.91c0 5.85-3.56 8.62-8.03 8.62h-2.73v-3.51h2.52c2.7 0 4.49-1.46 4.49-5.1s-1.7-5.43-4.57-5.43c-2.88 0-4.75 1.7-4.75 5.35v14.68h-3.72V23.44h3.73v1.98h.53a6.05 6.05 0 0 1 4.99-2.4c4.11 0 7.55 2.97 7.55 8.9ZM68.55 30.4l-2.48-.25c-1.95-.18-2.98-.71-2.98-1.85 0-1.34 1.31-2.12 3.19-2.12s3.19.92 3.3 2.23h3.58c-.14-3.33-2.73-5.39-6.85-5.39-4.1 0-6.95 2.2-6.95 5.43 0 2.7 1.7 4.43 5.57 4.82l2.52.25c1.53.14 2.55.46 2.55 1.91 0 1.31-.95 2.27-3.47 2.27-2.32 0-3.46-1.05-3.86-2.46h-3.88c.39 3.22 3.1 5.72 7.74 5.72 4.36 0 7.2-2.3 7.2-5.7 0-3.02-1.99-4.54-5.18-4.86Zm38.89 4.84c-.59 1.34-1.98 2.35-3.96 2.35-2.73 0-4.76-1.77-4.76-5.6 0-3.83 1.88-5.67 4.79-5.67 2.59 0 4.08 1.56 4.22 3.9h-6.7v2.7h10.35v-1.78c0-4.93-3.26-8.12-7.9-8.12-4.33 0-8.48 2.94-8.48 8.97 0 6.03 4.15 8.97 8.47 8.97a7.63 7.63 0 0 0 7.66-5.72h-3.7ZM48.73 23c-4.07 0-7.12 2.13-7.48 5.4h4c.3-1.21 1.4-2.1 3.48-2.1 2.7 0 3.59 1.42 3.59 3.16v5.85c-1.53 1.73-3.3 2.55-5.07 2.55-1.78 0-3.12-.89-3.12-2.48s.99-2.48 2.9-2.48h2.98v-2.7h-3.08c-4.26 0-6.63 2.13-6.63 5.4 0 3.04 2.3 5.34 6.1 5.34 2.12 0 4-.85 5.38-1.88h.54v1.46h3.72V29.1c0-4.22-2.87-6.1-7.3-6.1ZM23.47 40.53h3.73v-23.4h-3.73v23.4Zm15.64-17.1h-4.54l-5.42 7.13v2.24l5.56 7.73h4.61l-6.52-8.87 6.31-8.22Zm134.6 0-3.06 6.78A24.04 24.04 0 0 0 169 34.5h-.54c-.2-1.06-.95-2.62-1.7-4.25l-3.05-6.81h-4.11l7.16 15.35-3.54 7.73h3.97l10.64-23.08h-4.12Zm-14.94 0h-4.54l-5.43 7.13v2.24l5.57 7.73h4.6l-6.51-8.87 6.3-8.22Zm-23.31 6.96-2.49-.25c-1.95-.18-2.97-.71-2.97-1.85 0-1.34 1.3-2.12 3.19-2.12 1.88 0 3.19.92 3.3 2.23h3.57c-.14-3.33-2.73-5.39-6.84-5.39-4.11 0-6.95 2.2-6.95 5.43 0 2.7 1.7 4.43 5.57 4.82l2.52.25c1.52.14 2.55.46 2.55 1.91 0 1.31-.96 2.27-3.47 2.27-2.32 0-3.47-1.05-3.87-2.46h-3.87c.39 3.22 3.1 5.72 7.74 5.72 4.36 0 7.2-2.3 7.2-5.7 0-3.02-2-4.54-5.18-4.86Zm7.67 10.14h3.72v-23.4h-3.72v23.4Zm-24.55-15.1h-.53v-2h-3.73v17.1h3.73v-8.94c0-3.05 1.4-4.82 4.18-4.82h2.36v-3.76h-1.37c-2.57 0-3.67.97-4.64 2.41Z"/></svg>