<svg xmlns="http://www.w3.org/2000/svg" fill="currentColor" viewBox="0 0 24 24"><path d="M10.92 16.5a8.54 8.54 0 0 1-4.56-1.63c-.16-.13-.33-.25-.48-.4-.58-.55-.63-1.18-.18-1.84.4-.56 1.05-.7 1.73-.39.13.07.25.14.37.23a7.47 7.47 0 0 0 8.29.07c.24-.18.5-.33.8-.41.59-.15 1.14.06 1.45.58.36.58.36 1.16-.09 1.61-.68.7-1.5 1.2-2.4 1.56-.86.33-1.8.5-2.74.61.14.16.2.23.3.32l3.8 3.82c.43.43.52.97.28 1.48a1.5 1.5 0 0 1-1.4.88c-.37-.03-.65-.2-.9-.46-.95-.96-1.93-1.9-2.86-2.89-.27-.28-.4-.23-.65.02a192.38 192.38 0 0 1-2.92 2.94c-.44.43-.96.5-1.47.26a1.5 1.5 0 0 1-.87-1.38c.02-.37.2-.66.47-.92l3.75-3.76.28-.3Z"/><path d="M11.96 12.14A5.57 5.57 0 0 1 12.02 1a5.57 5.57 0 0 1-.06 11.14Zm2.76-5.58A2.71 2.71 0 0 0 12 3.84 2.71 2.71 0 0 0 9.28 6.6a2.71 2.71 0 0 0 2.74 2.7 2.7 2.7 0 0 0 2.7-2.74Z"/></svg>