<svg xmlns="http://www.w3.org/2000/svg" viewBox="0 0 24 24" fill="currentColor"><path d="M17.148 2H6.849A4.85 4.85 0 0 0 2 6.85v10.3A4.85 4.85 0 0 0 6.85 22h10.3A4.85 4.85 0 0 0 22 17.15V6.85A4.85 4.85 0 0 0 17.15 2h-.002Zm0 19.694H6.849a4.552 4.552 0 0 1-4.546-4.546V6.849A4.548 4.548 0 0 1 6.85 2.303h5.006a9.944 9.944 0 0 0 .8 3.637h1.953c.627 0 1.18.069 1.662.206l.018.006.02.007c.502.168.94.428 1.32.79l.023.019.018.022c.36.381.628.822.785 1.334.143.475.212 1.037.212 1.672v.75c0 .243-.01.487-.031.724.962.325 1.99.503 3.059.52v5.155a4.552 4.552 0 0 1-4.546 4.546v.003Z"/><path d="M5.787 16.997h2.506v-3.252h4.618l2.19 3.252h2.806l-2.415-3.268c.89-.131 1.29-.406 1.621-.856.332-.45.494-1.168.494-2.128v-.75c0-.568-.06-1.018-.166-1.362a2.273 2.273 0 0 0-.54-.912 2.43 2.43 0 0 0-.931-.556c-.36-.107-.81-.166-1.366-.166H5.787v9.998Zm2.506-7.795H14.2c.344 0 .585.06.706.165.122.107.194.3.194.585v.84c0 .3-.075.494-.194.6-.121.106-.359.15-.706.15H8.293V9.202Z"/></svg>