<svg xmlns="http://www.w3.org/2000/svg" fill="currentColor" viewBox="0 0 24 24"><path d="M22 12a10 10 0 1 1-20 0 10 10 0 0 1 20 0Zm-9.64-2.62a394 394 0 0 0-5.83 2.51c-.48.2-.72.38-.75.56-.04.3.35.42.86.58l.22.07c.51.17 1.2.36 1.56.37.32 0 .68-.12 1.08-.4 2.73-1.84 4.13-2.77 4.22-2.79.06-.01.15-.03.2.02.07.06.06.15.05.18-.03.16-1.53 1.55-2.3 2.27l-.45.42a8.8 8.8 0 0 1-.24.23c-.47.46-.83.8.02 1.36l1.06.72a67.36 67.36 0 0 0 1.51 1.02c.42.3.79.56 1.25.52.27-.03.54-.28.68-1.03.33-1.77.98-5.6 1.13-7.19a1.76 1.76 0 0 0-.01-.4.42.42 0 0 0-.14-.26.66.66 0 0 0-.4-.12c-.37 0-.94.2-3.72 1.36Z"/></svg>