<svg xmlns="http://www.w3.org/2000/svg" fill="currentColor" viewBox="0 0 24 24"><path d="M22.78 7.24s-.21-1.48-.87-2.12c-.84-.85-1.78-.85-2.2-.9C16.63 4 12 4 12 4s-4.62 0-7.7.22c-.43.05-1.37.05-2.2.9-.66.65-.88 2.12-.88 2.12A31.29 31.29 0 0 0 1 10.69v1.62a31.27 31.27 0 0 0 .22 3.45s.21 1.47.88 2.11c.83.85 1.93.83 2.42.91C6.28 18.95 12 19 12 19s4.62 0 7.7-.22c.43-.05 1.37-.06 2.2-.9.66-.65.88-2.12.88-2.12.14-1.15.2-2.3.22-3.45v-1.62a31.3 31.3 0 0 0-.22-3.45ZM9.73 14.27v-6l5.95 3.01-5.95 2.99Z"/></svg>